Coordinates
version=1
nRows=17
nColumns=40
inDegrees=yes

Units are S.I. units (second, meters, Newtons, ...)
Angles are in degrees.

endheader
time	pelvis_tilt	pelvis_list	pelvis_rotation	pelvis_tx	pelvis_ty	pelvis_tz	hip_flexion_r	hip_adduction_r	hip_rotation_r	knee_angle_r	knee_angle_r_beta	ankle_angle_r	subtalar_angle_r	mtp_angle_r	hip_flexion_l	hip_adduction_l	hip_rotation_l	knee_angle_l	knee_angle_l_beta	ankle_angle_l	subtalar_angle_l	mtp_angle_l	lumbar_extension	lumbar_bending	lumbar_rotation	arm_flex_r	arm_add_r	arm_rot_r	elbow_flex_r	pro_sup_r	wrist_flex_r	wrist_dev_r	arm_flex_l	arm_add_l	arm_rot_l	elbow_flex_l	pro_sup_l	wrist_flex_l	wrist_dev_l
      8.25864286	     -5.40834958	     -4.30091077	      8.07141303	      1.00090897	      0.92632256	      0.50673147	      2.85109892	      3.10787706	    -19.78106189	     10.43780956	     10.43780956	     14.59694654	      3.54732230	     -4.04602534	     27.99679422	     -5.73645886	     -1.55269316	     19.72507617	     19.72507617	      3.31937990	     -8.03992329	      3.68880275	     -8.75784029	      4.46272463	      2.66044444	     34.62181002	    -15.72794280	      1.48130008	     66.66091139	     45.01426720	      0.00000000	      0.00000000	     -4.49356218	     -6.98731784	     -8.52512204	     27.68824602	     46.63329224	      0.00000000	      0.00000000
      8.27228571	     -5.25845750	     -4.38350600	      7.80710833	      1.00164870	      0.92537358	      0.50504587	      2.36286140	      3.11894244	    -19.47589614	     10.66468379	     10.66468379	     15.12432731	      3.53042220	     -4.05115311	     27.64268733	     -5.77433390	     -1.46234135	     20.72650657	     20.72650657	      3.70434470	     -8.98856105	      3.40646094	     -8.64404313	      4.50582882	      2.72735405	     33.58025439	    -15.49337142	      1.66425395	     66.25422226	     45.02085955	      0.00000000	      0.00000000	     -4.60997923	     -6.99846671	     -8.51691770	     27.71499125	     46.62433927	      0.00000000	      0.00000000
      8.28592857	     -5.03966640	     -4.36075189	      7.52257406	      1.00255847	      0.92470788	      0.50323906	      1.80178575	      3.00112848	    -19.13366904	     10.93843908	     10.93843908	     15.52038969	      3.50025648	     -4.12421292	     27.09847175	     -5.73244670	     -1.41412498	     21.50138770	     21.50138770	      4.16181767	     -9.70104506	      3.19021146	     -8.56231243	      4.39779114	      2.68933417	     32.34911665	    -15.17810735	      1.86316956	     65.85401180	     45.02264899	      0.00000000	      0.00000000	     -4.73793980	     -7.06395617	     -8.52593442	     27.69131556	     46.62194427	      0.00000000	      0.00000000
      8.29957143	     -4.94391063	     -4.39482101	      7.23119957	      1.00318994	      0.92376032	      0.50126907	      1.59319013	      2.86655688	    -18.62172176	     11.58790769	     11.58790769	     16.07680193	      3.04346207	     -3.97168128	     26.90682903	     -5.63624750	     -0.87668250	     22.54109323	     22.54109323	      4.67862813	    -11.08620877	      3.11181769	     -8.44215983	      4.38952825	      2.80943980	     31.13422623	    -15.21462051	      1.97341172	     65.16908382	     45.04110930	      0.00000000	      0.00000000	     -4.61308302	     -7.13354975	     -8.50273929	     27.84328189	     46.61388439	      0.00000000	      0.00000000
      8.31321429	     -4.70830613	     -4.31018335	      6.96277672	      1.00411070	      0.92341388	      0.49915011	      1.08329762	      2.63308535	    -18.27929144	     11.99061475	     11.99061475	     16.41187520	      2.89673304	     -3.99571176	     26.38628839	     -5.50907989	     -0.71172701	     23.21664140	     23.21664140	      5.26550501	    -11.68658485	      2.89302822	     -8.45122577	      4.23802914	      2.62897598	     29.70554783	    -14.90847908	      2.17161865	     64.66778577	     45.04541582	      0.00000000	      0.00000000	     -4.58932545	     -7.24400875	     -8.50588488	     27.86602487	     46.61312870	      0.00000000	      0.00000000
      8.32685714	     -4.61197290	     -4.23081394	      6.67210149	      1.00466972	      0.92289649	      0.49688652	      1.09291611	      2.28275397	    -17.66615278	     13.07787320	     13.07787320	     16.94073120	      2.17467825	     -3.73964717	     26.16556978	     -5.29671785	     -0.27442511	     24.04000178	     24.04000178	      5.84115487	    -12.76757396	      2.99370352	     -8.31072753	      4.08885342	      2.79724885	     28.24160728	    -15.01316541	      2.23532285	     63.70164285	     45.07438096	      0.00000000	      0.00000000	     -4.27233752	     -7.33155301	     -8.45930395	     28.05739675	     46.60390948	      0.00000000	      0.00000000
      8.34050000	     -4.34483895	     -4.16349813	      6.45095065	      1.00555014	      0.92305498	      0.49442035	      0.62148936	      2.01415800	    -17.38916730	     13.58978341	     13.58978341	     17.09051428	      2.02254814	     -3.73059451	     25.62984926	     -5.16818381	     -0.13296663	     24.57052938	     24.57052938	      6.45565050	    -13.18754648	      2.79487535	     -8.36559874	      4.00037029	      2.47873670	     26.65567252	    -14.70212493	      2.43145842	     63.11355279	     45.08065717	      0.00000000	      0.00000000	     -4.14149664	     -7.44144551	     -8.45671312	     28.10845702	     46.60425716	      0.00000000	      0.00000000
      8.35414286	     -4.24589517	     -4.01270447	      6.14333392	      1.00605000	      0.92308209	      0.49185030	      0.79623536	      1.49087309	    -16.86582275	     14.98505826	     14.98505826	     17.48092147	      1.36092311	     -3.54829218	     25.29725494	     -4.91319381	     -0.00138620	     25.10377653	     25.10377653	      7.08289469	    -13.83509609	      2.96909022	     -8.28468321	      3.77227132	      2.69072028	     25.00506541	    -14.88531863	      2.46181103	     61.82555217	     45.12044032	      0.00000000	      0.00000000	     -3.63164876	     -7.53702802	     -8.39958952	     28.35735871	     46.59705704	      0.00000000	      0.00000000
      8.36778571	     -4.04122373	     -3.89771983	      5.88819695	      1.00670335	      0.92360533	      0.48912185	      0.71249587	      1.03730274	    -16.51052020	     16.08411751	     16.08411751	     17.64110314	      1.01069626	     -3.44012943	     24.76473243	     -4.71818895	     -0.00562194	     25.44789573	     25.44789573	      7.68199116	    -14.19207465	      3.05755383	     -8.30869538	      3.63533323	      2.58881327	     23.32493240	    -14.82403074	      2.54430865	     60.70266505	     45.15108867	      0.00000000	      0.00000000	     -3.21312954	     -7.66471785	     -8.34750454	     28.54588735	     46.59076109	      0.00000000	      0.00000000
      8.38142857	     -3.89463769	     -3.81262686	      5.60654419	      1.00731333	      0.92426419	      0.48631035	      0.82352600	      0.54700700	    -16.19248860	     17.40492195	     17.40492195	     17.69606700	      0.68719052	     -3.40455635	     24.19900667	     -4.54639275	     -0.08286289	     25.59842245	     25.59842245	      8.25969754	    -14.42187426	      3.20994231	     -8.26685471	      3.54212740	      2.57746845	     21.56729776	    -14.81690661	      2.60600071	     59.31845497	     45.19149089	      0.00000000	      0.00000000	     -2.76282759	     -7.73575294	     -8.27027535	     28.80656669	     46.57994038	      0.00000000	      0.00000000
      8.39507143	     -3.60589895	     -3.93617295	      5.42144519	      1.00815157	      0.92537710	      0.48343134	      0.58309411	      0.35627089	    -16.00974487	     18.29691519	     18.29691519	     17.48980551	      0.59574454	     -3.47188164	     23.46627340	     -4.59449004	     -0.11251278	     25.67916539	     25.67916539	      8.71235816	    -14.57565845	      3.14780555	     -8.34525871	      3.73871319	      2.08000415	     19.76486361	    -14.56173128	      2.78841322	     58.49346030	     45.20474967	      0.00000000	      0.00000000	     -2.50052827	     -7.82648496	     -8.25946632	     28.95814888	     46.58116447	      0.00000000	      0.00000000
      8.40871429	     -3.57285528	     -3.69675725	      5.00142442	      1.00849988	      0.92617673	      0.48058230	      1.27253500	     -0.48336689	    -15.58660581	     20.43950393	     20.43950393	     17.41765050	      0.13171561	     -3.91489398	     22.85062531	     -4.28612657	     -0.49926264	     25.58447160	     25.58447160	      9.31796266	    -14.67427001	      3.75788789	     -8.22495254	      3.43593513	      2.36729395	     18.41393739	    -14.57452289	      2.49270369	     55.22810544	     45.33214689	      0.00000000	      0.00000000	     -1.89973275	     -7.99857853	     -7.83667295	     29.69981927	     46.50719088	      0.00000000	      0.00000000
      8.42235714	     -3.40579649	     -3.64005953	      4.66479790	      1.00911692	      0.92732542	      0.47773635	      1.68081570	     -1.06339623	    -15.27752974	     22.27792102	     22.27792102	     17.10385587	     -0.17394134	     -4.41996376	     21.99226040	     -4.17682392	     -0.87401887	     25.26822612	     25.26822612	      9.70608912	    -14.55786484	      3.76116828	     -8.19412418	      3.35811713	      2.35623255	     16.57756962	    -14.62635409	      2.64940398	     53.76554379	     45.36938196	      0.00000000	      0.00000000	     -1.40971625	     -8.10624070	     -7.77052071	     30.26141985	     46.50024123	      0.00000000	      0.00000000
      8.43600000	     -3.25401774	     -3.58439664	      4.29223313	      1.00957902	      0.92843127	      0.47485616	      2.28565472	     -1.69612809	    -14.89808849	     24.39764180	     24.39764180	     16.63156166	     -0.55123453	     -5.16548748	     21.14662614	     -4.06792523	     -1.32302939	     24.94045189	     24.94045189	     10.01414670	    -14.47926416	      3.75011303	     -8.18856812	      3.34525340	      2.40479508	     14.80941506	    -14.75287988	      2.77848327	     52.05440852	     45.41693586	      0.00000000	      0.00000000	     -0.85153545	     -8.22646808	     -7.68596515	     30.97195555	     46.49219476	      0.00000000	      0.00000000
      8.44964286	     -3.09458801	     -3.56419800	      3.90442349	      1.00996228	      0.92949586	      0.47205334	      3.06288664	     -2.32727662	    -14.47236052	     26.79463771	     26.79463771	     15.96977677	     -1.02438762	     -6.12359809	     20.26426385	     -3.99365477	     -1.77228418	     24.55381270	     24.55381270	     10.30479858	    -14.36806554	      3.70754755	     -8.21985167	      3.36408013	      2.42082480	     13.07064625	    -14.84208189	      2.90225813	     50.21162450	     45.46954029	      0.00000000	      0.00000000	     -0.31575905	     -8.36670049	     -7.58071566	     31.77654811	     46.48170394	      0.00000000	      0.00000000
      8.46328571	     -2.90177760	     -3.58695592	      3.51771921	      1.01024650	      0.93052412	      0.46929123	      3.94173339	     -2.92417652	    -13.98861918	     29.37417899	     29.37417899	     15.08731520	     -1.54955582	     -7.14408676	     19.36299254	     -3.95694909	     -2.18519422	     24.18113941	     24.18113941	     10.56834173	    -14.24747538	      3.63874115	     -8.27595156	      3.45335444	      2.35221169	     11.43264541	    -14.91831664	      3.01354904	     48.43891669	     45.52062456	      0.00000000	      0.00000000	      0.20662540	     -8.52983402	     -7.47380055	     32.60751505	     46.47232930	      0.00000000	      0.00000000
      8.47692857	     -2.80816259	     -3.63736424	      3.04311319	      1.01033568	      0.93127399	      0.46678765	      4.94920567	     -3.37851372	    -13.16070726	     31.64398750	     31.64398750	     12.09179891	     -3.61850889	    -13.43632373	     18.58763379	     -3.97822078	     -2.71810909	     23.82137994	     23.82137994	     10.63521193	    -14.21538006	      3.09142427	     -8.18251572	      3.47835817	      1.73791103	     11.69942197	    -14.07394009	      2.62516658	     41.78568937	     45.78479160	      0.00000000	      0.00000000	     -0.63612650	     -9.29956815	     -5.70390213	     36.15311585	     46.21558884	      0.00000000	      0.00000000
